<?xml version="1.0" encoding="utf-8" standalone="no"?>
<!DOCTYPE svg PUBLIC "-//W3C//DTD SVG 1.1//EN"
  "http://www.w3.org/Graphics/SVG/1.1/DTD/svg11.dtd">
<svg height="473.76pt" version="1.1" viewBox="0 0 675.36 473.76" width="675.36pt" xmlns="http://www.w3.org/2000/svg" xmlns:xlink="http://www.w3.org/1999/xlink">
 <metadata>
  <rdf:RDF xmlns:cc="http://creativecommons.org/ns#" xmlns:dc="http://purl.org/dc/elements/1.1/" xmlns:rdf="http://www.w3.org/1999/02/22-rdf-syntax-ns#">
   <cc:Work>
    <dc:type rdf:resource="http://purl.org/dc/dcmitype/StillImage"/>
    <dc:date>2022-01-28T16:26:37.069247</dc:date>
    <dc:format>image/svg+xml</dc:format>
    <dc:creator>
     <cc:Agent>
      <dc:title>Matplotlib v3.4.3, https://matplotlib.org/</dc:title>
     </cc:Agent>
    </dc:creator>
   </cc:Work>
  </rdf:RDF>
 </metadata>
 <defs>
  <style type="text/css">*{stroke-linecap:butt;stroke-linejoin:round;}</style>
 </defs>
 <g id="figure_1">
  <g id="patch_1">
   <path d="M 0 473.76 
L 675.36 473.76 
L 675.36 0 
L 0 0 
z
" style="fill:#ffffff;"/>
  </g>
  <g id="axes_1">
   <g id="patch_2">
    <path d="M 84.42 421.6464 
L 607.824 421.6464 
L 607.824 56.8512 
L 84.42 56.8512 
z
" style="fill:#ffffff;"/>
   </g>
   <g id="matplotlib.axis_1">
    <g id="xtick_1">
     <g id="line2d_1">
      <defs>
       <path d="M 0 0 
L 0 3.5 
" id="m6f8398d9e9" style="stroke:#000000;stroke-width:0.8;"/>
      </defs>
      <g>
       <use style="stroke:#000000;stroke-width:0.8;" x="147.521934" xlink:href="#m6f8398d9e9" y="421.6464"/>
      </g>
     </g>
     <g id="text_1">
      <!-- 200 -->
      <g transform="translate(137.978184 436.244838)scale(0.1 -0.1)">
       <defs>
        <path d="M 1228 531 
L 3431 531 
L 3431 0 
L 469 0 
L 469 531 
Q 828 903 1448 1529 
Q 2069 2156 2228 2338 
Q 2531 2678 2651 2914 
Q 2772 3150 2772 3378 
Q 2772 3750 2511 3984 
Q 2250 4219 1831 4219 
Q 1534 4219 1204 4116 
Q 875 4013 500 3803 
L 500 4441 
Q 881 4594 1212 4672 
Q 1544 4750 1819 4750 
Q 2544 4750 2975 4387 
Q 3406 4025 3406 3419 
Q 3406 3131 3298 2873 
Q 3191 2616 2906 2266 
Q 2828 2175 2409 1742 
Q 1991 1309 1228 531 
z
" id="DejaVuSans-32" transform="scale(0.015625)"/>
        <path d="M 2034 4250 
Q 1547 4250 1301 3770 
Q 1056 3291 1056 2328 
Q 1056 1369 1301 889 
Q 1547 409 2034 409 
Q 2525 409 2770 889 
Q 3016 1369 3016 2328 
Q 3016 3291 2770 3770 
Q 2525 4250 2034 4250 
z
M 2034 4750 
Q 2819 4750 3233 4129 
Q 3647 3509 3647 2328 
Q 3647 1150 3233 529 
Q 2819 -91 2034 -91 
Q 1250 -91 836 529 
Q 422 1150 422 2328 
Q 422 3509 836 4129 
Q 1250 4750 2034 4750 
z
" id="DejaVuSans-30" transform="scale(0.015625)"/>
       </defs>
       <use xlink:href="#DejaVuSans-32"/>
       <use x="63.623047" xlink:href="#DejaVuSans-30"/>
       <use x="127.246094" xlink:href="#DejaVuSans-30"/>
      </g>
     </g>
    </g>
    <g id="xtick_2">
     <g id="line2d_2">
      <g>
       <use style="stroke:#000000;stroke-width:0.8;" x="256.770813" xlink:href="#m6f8398d9e9" y="421.6464"/>
      </g>
     </g>
     <g id="text_2">
      <!-- 400 -->
      <g transform="translate(247.227063 436.244838)scale(0.1 -0.1)">
       <defs>
        <path d="M 2419 4116 
L 825 1625 
L 2419 1625 
L 2419 4116 
z
M 2253 4666 
L 3047 4666 
L 3047 1625 
L 3713 1625 
L 3713 1100 
L 3047 1100 
L 3047 0 
L 2419 0 
L 2419 1100 
L 313 1100 
L 313 1709 
L 2253 4666 
z
" id="DejaVuSans-34" transform="scale(0.015625)"/>
       </defs>
       <use xlink:href="#DejaVuSans-34"/>
       <use x="63.623047" xlink:href="#DejaVuSans-30"/>
       <use x="127.246094" xlink:href="#DejaVuSans-30"/>
      </g>
     </g>
    </g>
    <g id="xtick_3">
     <g id="line2d_3">
      <g>
       <use style="stroke:#000000;stroke-width:0.8;" x="366.019691" xlink:href="#m6f8398d9e9" y="421.6464"/>
      </g>
     </g>
     <g id="text_3">
      <!-- 600 -->
      <g transform="translate(356.475941 436.244838)scale(0.1 -0.1)">
       <defs>
        <path d="M 2113 2584 
Q 1688 2584 1439 2293 
Q 1191 2003 1191 1497 
Q 1191 994 1439 701 
Q 1688 409 2113 409 
Q 2538 409 2786 701 
Q 3034 994 3034 1497 
Q 3034 2003 2786 2293 
Q 2538 2584 2113 2584 
z
M 3366 4563 
L 3366 3988 
Q 3128 4100 2886 4159 
Q 2644 4219 2406 4219 
Q 1781 4219 1451 3797 
Q 1122 3375 1075 2522 
Q 1259 2794 1537 2939 
Q 1816 3084 2150 3084 
Q 2853 3084 3261 2657 
Q 3669 2231 3669 1497 
Q 3669 778 3244 343 
Q 2819 -91 2113 -91 
Q 1303 -91 875 529 
Q 447 1150 447 2328 
Q 447 3434 972 4092 
Q 1497 4750 2381 4750 
Q 2619 4750 2861 4703 
Q 3103 4656 3366 4563 
z
" id="DejaVuSans-36" transform="scale(0.015625)"/>
       </defs>
       <use xlink:href="#DejaVuSans-36"/>
       <use x="63.623047" xlink:href="#DejaVuSans-30"/>
       <use x="127.246094" xlink:href="#DejaVuSans-30"/>
      </g>
     </g>
    </g>
    <g id="xtick_4">
     <g id="line2d_4">
      <g>
       <use style="stroke:#000000;stroke-width:0.8;" x="475.26857" xlink:href="#m6f8398d9e9" y="421.6464"/>
      </g>
     </g>
     <g id="text_4">
      <!-- 800 -->
      <g transform="translate(465.72482 436.244838)scale(0.1 -0.1)">
       <defs>
        <path d="M 2034 2216 
Q 1584 2216 1326 1975 
Q 1069 1734 1069 1313 
Q 1069 891 1326 650 
Q 1584 409 2034 409 
Q 2484 409 2743 651 
Q 3003 894 3003 1313 
Q 3003 1734 2745 1975 
Q 2488 2216 2034 2216 
z
M 1403 2484 
Q 997 2584 770 2862 
Q 544 3141 544 3541 
Q 544 4100 942 4425 
Q 1341 4750 2034 4750 
Q 2731 4750 3128 4425 
Q 3525 4100 3525 3541 
Q 3525 3141 3298 2862 
Q 3072 2584 2669 2484 
Q 3125 2378 3379 2068 
Q 3634 1759 3634 1313 
Q 3634 634 3220 271 
Q 2806 -91 2034 -91 
Q 1263 -91 848 271 
Q 434 634 434 1313 
Q 434 1759 690 2068 
Q 947 2378 1403 2484 
z
M 1172 3481 
Q 1172 3119 1398 2916 
Q 1625 2713 2034 2713 
Q 2441 2713 2670 2916 
Q 2900 3119 2900 3481 
Q 2900 3844 2670 4047 
Q 2441 4250 2034 4250 
Q 1625 4250 1398 4047 
Q 1172 3844 1172 3481 
z
" id="DejaVuSans-38" transform="scale(0.015625)"/>
       </defs>
       <use xlink:href="#DejaVuSans-38"/>
       <use x="63.623047" xlink:href="#DejaVuSans-30"/>
       <use x="127.246094" xlink:href="#DejaVuSans-30"/>
      </g>
     </g>
    </g>
    <g id="xtick_5">
     <g id="line2d_5">
      <g>
       <use style="stroke:#000000;stroke-width:0.8;" x="584.517449" xlink:href="#m6f8398d9e9" y="421.6464"/>
      </g>
     </g>
     <g id="text_5">
      <!-- 1000 -->
      <g transform="translate(571.792449 436.244838)scale(0.1 -0.1)">
       <defs>
        <path d="M 794 531 
L 1825 531 
L 1825 4091 
L 703 3866 
L 703 4441 
L 1819 4666 
L 2450 4666 
L 2450 531 
L 3481 531 
L 3481 0 
L 794 0 
L 794 531 
z
" id="DejaVuSans-31" transform="scale(0.015625)"/>
       </defs>
       <use xlink:href="#DejaVuSans-31"/>
       <use x="63.623047" xlink:href="#DejaVuSans-30"/>
       <use x="127.246094" xlink:href="#DejaVuSans-30"/>
       <use x="190.869141" xlink:href="#DejaVuSans-30"/>
      </g>
     </g>
    </g>
   </g>
   <g id="matplotlib.axis_2">
    <g id="ytick_1">
     <g id="line2d_6">
      <defs>
       <path d="M 0 0 
L -3.5 0 
" id="me6a548c499" style="stroke:#000000;stroke-width:0.8;"/>
      </defs>
      <g>
       <use style="stroke:#000000;stroke-width:0.8;" x="84.42" xlink:href="#me6a548c499" y="405.805706"/>
      </g>
     </g>
     <g id="text_6">
      <!-- 0 -->
      <g transform="translate(71.0575 409.604925)scale(0.1 -0.1)">
       <use xlink:href="#DejaVuSans-30"/>
      </g>
     </g>
    </g>
    <g id="ytick_2">
     <g id="line2d_7">
      <g>
       <use style="stroke:#000000;stroke-width:0.8;" x="84.42" xlink:href="#me6a548c499" y="333.174946"/>
      </g>
     </g>
     <g id="text_7">
      <!-- 100 -->
      <g transform="translate(58.3325 336.974165)scale(0.1 -0.1)">
       <use xlink:href="#DejaVuSans-31"/>
       <use x="63.623047" xlink:href="#DejaVuSans-30"/>
       <use x="127.246094" xlink:href="#DejaVuSans-30"/>
      </g>
     </g>
    </g>
    <g id="ytick_3">
     <g id="line2d_8">
      <g>
       <use style="stroke:#000000;stroke-width:0.8;" x="84.42" xlink:href="#me6a548c499" y="260.544186"/>
      </g>
     </g>
     <g id="text_8">
      <!-- 200 -->
      <g transform="translate(58.3325 264.343405)scale(0.1 -0.1)">
       <use xlink:href="#DejaVuSans-32"/>
       <use x="63.623047" xlink:href="#DejaVuSans-30"/>
       <use x="127.246094" xlink:href="#DejaVuSans-30"/>
      </g>
     </g>
    </g>
    <g id="ytick_4">
     <g id="line2d_9">
      <g>
       <use style="stroke:#000000;stroke-width:0.8;" x="84.42" xlink:href="#me6a548c499" y="187.913427"/>
      </g>
     </g>
     <g id="text_9">
      <!-- 300 -->
      <g transform="translate(58.3325 191.712645)scale(0.1 -0.1)">
       <defs>
        <path d="M 2597 2516 
Q 3050 2419 3304 2112 
Q 3559 1806 3559 1356 
Q 3559 666 3084 287 
Q 2609 -91 1734 -91 
Q 1441 -91 1130 -33 
Q 819 25 488 141 
L 488 750 
Q 750 597 1062 519 
Q 1375 441 1716 441 
Q 2309 441 2620 675 
Q 2931 909 2931 1356 
Q 2931 1769 2642 2001 
Q 2353 2234 1838 2234 
L 1294 2234 
L 1294 2753 
L 1863 2753 
Q 2328 2753 2575 2939 
Q 2822 3125 2822 3475 
Q 2822 3834 2567 4026 
Q 2313 4219 1838 4219 
Q 1578 4219 1281 4162 
Q 984 4106 628 3988 
L 628 4550 
Q 988 4650 1302 4700 
Q 1616 4750 1894 4750 
Q 2613 4750 3031 4423 
Q 3450 4097 3450 3541 
Q 3450 3153 3228 2886 
Q 3006 2619 2597 2516 
z
" id="DejaVuSans-33" transform="scale(0.015625)"/>
       </defs>
       <use xlink:href="#DejaVuSans-33"/>
       <use x="63.623047" xlink:href="#DejaVuSans-30"/>
       <use x="127.246094" xlink:href="#DejaVuSans-30"/>
      </g>
     </g>
    </g>
    <g id="ytick_5">
     <g id="line2d_10">
      <g>
       <use style="stroke:#000000;stroke-width:0.8;" x="84.42" xlink:href="#me6a548c499" y="115.282667"/>
      </g>
     </g>
     <g id="text_10">
      <!-- 400 -->
      <g transform="translate(58.3325 119.081886)scale(0.1 -0.1)">
       <use xlink:href="#DejaVuSans-34"/>
       <use x="63.623047" xlink:href="#DejaVuSans-30"/>
       <use x="127.246094" xlink:href="#DejaVuSans-30"/>
      </g>
     </g>
    </g>
   </g>
   <g id="line2d_11">
    <path clip-path="url(#p4090fd5e33)" d="M 108.211091 357.771307 
L 119.139636 395.312213 
L 120.307471 401.304505 
L 127.922236 403.755005 
L 128.446695 401.919804 
L 131.589807 404.852838 
L 132.295241 404.170716 
L 137.188812 405.016526 
L 140.531738 404.001902 
L 142.787817 404.924505 
L 143.243021 404.641449 
L 150.071076 405.008803 
L 150.939343 401.710666 
L 152.030261 402.171979 
L 154.647059 404.204392 
L 158.537864 404.883646 
L 159.625822 363.979008 
L 160.094095 387.525151 
L 160.564901 404.204958 
L 161.243668 404.150487 
L 162.382048 403.118567 
L 164.000861 404.216552 
L 167.824019 404.774647 
L 168.794554 396.17508 
L 169.97754 391.640542 
L 170.580875 403.945018 
L 171.666172 403.380313 
L 172.172421 404.259206 
L 173.240943 404.677877 
L 176.040894 402.435164 
L 176.584561 403.621086 
L 177.634205 403.80635 
L 178.739935 399.551855 
L 179.216746 395.10682 
L 179.795876 404.876921 
L 181.921805 403.677269 
L 182.550245 404.176912 
L 183.142375 390.333958 
L 183.649818 400.840762 
L 184.165831 404.677359 
L 187.935968 401.545252 
L 188.614241 402.634339 
L 189.067279 389.037946 
L 189.694365 401.9857 
L 190.309335 399.344834 
L 190.778773 380.249913 
L 191.335125 404.102022 
L 191.813253 404.934088 
L 192.383838 403.722574 
L 192.903876 394.701662 
L 194.033387 399.79082 
L 195.133023 401.140922 
L 198.848603 402.723897 
L 200.57055 390.763588 
L 201.15929 400.757559 
L 201.655347 399.870632 
L 202.191897 404.266894 
L 202.705663 395.241141 
L 203.310533 403.059135 
L 203.864321 399.744056 
L 204.467915 404.640081 
L 204.926923 398.607498 
L 205.573586 401.715745 
L 206.102961 399.177225 
L 206.664978 401.09101 
L 207.608821 405.0648 
L 208.883391 404.729032 
L 209.361092 400.678544 
L 209.8399 401.885584 
L 210.459075 398.049528 
L 210.882928 400.266797 
L 212.115337 404.985145 
L 213.207826 404.842437 
L 213.735749 403.422779 
L 214.254794 404.963504 
L 214.824757 402.984964 
L 215.620405 404.747672 
L 215.946236 386.84047 
L 216.471836 396.750758 
L 217.037251 371.010755 
L 217.537953 394.018506 
L 218.059897 401.690996 
L 218.566792 399.125457 
L 219.064614 401.02389 
L 220.332324 400.933948 
L 221.313767 397.617872 
L 222.44846 404.929262 
L 223.564384 403.489142 
L 225.24816 403.342365 
L 226.863936 404.980218 
L 227.333697 402.678573 
L 227.892678 398.969368 
L 228.400812 402.76253 
L 229.029419 403.24211 
L 229.686199 404.30494 
L 230.147911 350.126641 
L 230.710803 394.891143 
L 231.240945 396.904803 
L 231.716701 400.509628 
L 232.320904 398.31795 
L 232.810923 403.409961 
L 233.397193 403.312857 
L 233.883674 400.931012 
L 234.329276 404.866696 
L 235.457219 398.42138 
L 235.946228 401.760063 
L 236.653975 398.438539 
L 237.223943 403.644496 
L 237.803285 403.507335 
L 238.192335 402.959887 
L 238.653711 404.959715 
L 238.972354 404.673682 
L 239.335398 401.126762 
L 239.891978 392.49619 
L 240.472468 400.956149 
L 240.975605 396.725921 
L 241.441166 401.250789 
L 242.108942 397.902772 
L 242.736157 403.354633 
L 243.20662 390.246805 
L 243.786989 402.841232 
L 244.254446 403.068924 
L 244.730919 402.76411 
L 245.921211 403.24111 
L 247.477582 400.432473 
L 248.158798 401.027496 
L 248.600625 402.102144 
L 249.686822 399.607414 
L 250.297947 401.498673 
L 250.76589 399.622973 
L 251.196468 403.955068 
L 251.619195 397.21818 
L 251.942841 394.888923 
L 252.513451 393.381672 
L 252.929396 398.981114 
L 253.596343 402.777189 
L 254.113947 403.65191 
L 255.177605 404.955346 
L 255.541768 405.002114 
L 255.84311 403.672025 
L 256.226256 400.336801 
L 256.725297 404.997894 
L 256.998419 404.988969 
L 257.41326 396.602314 
L 257.970236 402.912262 
L 258.476475 396.201503 
L 259.046836 404.411604 
L 259.476383 403.511605 
L 260.178989 399.676124 
L 260.68477 401.062263 
L 261.816478 396.130685 
L 262.288193 399.54414 
L 262.915572 397.170826 
L 263.362563 397.294831 
L 264.022419 402.973205 
L 264.438992 403.856671 
L 265.06889 397.06507 
L 265.755293 403.844111 
L 266.216968 390.845512 
L 266.714566 395.88438 
L 267.252699 389.530847 
L 267.650185 404.723298 
L 268.371914 398.391606 
L 268.909272 402.450871 
L 269.493546 399.487524 
L 270.652355 398.441901 
L 271.052306 400.411411 
L 271.640549 395.804896 
L 272.14894 403.793155 
L 272.709478 401.513002 
L 273.276223 402.116712 
L 273.797522 399.044904 
L 274.265073 402.883357 
L 275.018682 402.418357 
L 275.526804 402.347706 
L 276.018262 398.892608 
L 276.617698 404.824948 
L 277.055343 390.723233 
L 277.983309 404.958104 
L 278.714969 394.425494 
L 279.136393 403.488704 
L 279.43996 404.953754 
L 280.277791 401.970685 
L 280.933455 396.024384 
L 281.992113 399.175102 
L 282.466568 398.968152 
L 283.244507 399.68001 
L 283.605795 395.053796 
L 284.222451 400.431435 
L 284.788132 403.591644 
L 285.28548 402.957893 
L 286.365155 392.561664 
L 286.957045 399.516636 
L 287.451787 401.755285 
L 287.861228 404.967477 
L 288.589554 404.923549 
L 289.078766 402.747273 
L 289.570026 399.775786 
L 290.000686 405.027781 
L 290.360681 402.441105 
L 291.370983 381.382389 
L 291.843743 393.78427 
L 292.434587 390.951215 
L 292.780221 399.390513 
L 293.490447 403.194911 
L 293.97509 391.301951 
L 294.604933 399.198695 
L 296.285638 402.280799 
L 296.78322 405.043141 
L 297.471164 401.456923 
L 297.819952 400.960631 
L 298.239872 404.777486 
L 298.558515 404.931855 
L 298.877157 404.831624 
L 299.497364 400.937554 
L 300.028594 399.936467 
L 300.667226 396.701045 
L 301.178661 402.63234 
L 301.621166 397.002372 
L 302.254156 394.725527 
L 302.847687 401.554802 
L 303.383674 404.5108 
L 303.848445 399.511812 
L 304.358812 402.12739 
L 304.977718 396.296893 
L 305.477753 402.46054 
L 306.07061 400.084919 
L 306.553417 392.951867 
L 307.155035 399.792772 
L 307.66155 399.748165 
L 308.093505 402.270794 
L 308.83099 399.78618 
L 309.301321 404.32386 
L 310.414794 399.580917 
L 310.900133 398.668813 
L 311.477203 400.916837 
L 312.060538 393.441723 
L 312.565643 394.857731 
L 313.105842 399.176927 
L 313.673402 402.210409 
L 314.221313 393.228427 
L 314.814514 401.561789 
L 315.294292 399.233524 
L 315.906922 394.887675 
L 316.43427 402.70374 
L 316.879111 401.357006 
L 317.531709 400.857086 
L 317.935144 398.273278 
L 318.589299 399.817183 
L 319.024938 403.644045 
L 319.725486 405.044133 
L 320.376671 400.717581 
L 320.655207 402.470887 
L 321.355514 400.284727 
L 321.917265 400.516185 
L 322.192316 402.558729 
L 322.933987 404.242172 
L 323.481757 398.902951 
L 324.117479 402.639354 
L 324.439122 403.470181 
L 325.19246 402.393541 
L 326.275323 398.758106 
L 326.601442 403.065391 
L 326.917965 397.678882 
L 327.403975 402.207438 
L 327.914151 398.02432 
L 328.356341 396.754806 
L 328.912822 398.600403 
L 329.370172 402.782169 
L 330.055684 391.092555 
L 330.638818 400.648848 
L 331.180719 395.156798 
L 331.723538 403.971611 
L 332.880237 402.383579 
L 333.359312 400.994587 
L 333.789313 401.006483 
L 334.53795 402.263255 
L 335.760515 393.406051 
L 336.067298 404.746056 
L 336.681301 402.58028 
L 337.139019 394.647657 
L 337.842592 404.814978 
L 338.349695 394.438099 
L 338.827268 398.234335 
L 339.142094 404.012108 
L 339.797814 397.326018 
L 340.527593 398.627922 
L 341.048572 403.925354 
L 341.64564 397.594344 
L 342.294188 401.53129 
L 343.12794 403.576378 
L 343.798796 402.505921 
L 344.290044 394.903503 
L 344.876448 398.112218 
L 345.22831 398.603754 
L 345.557614 403.75324 
L 345.991889 399.442084 
L 346.508615 403.491097 
L 347.067231 398.155458 
L 347.434968 396.546895 
L 348.184005 399.700625 
L 348.638222 394.779742 
L 349.14164 399.192509 
L 350.306473 401.26324 
L 350.830043 400.971422 
L 351.303182 399.489147 
L 351.589743 405.057788 
L 352.546622 401.643075 
L 352.975367 403.224583 
L 353.44517 398.452569 
L 353.750838 402.259303 
L 354.113903 402.838932 
L 355.205587 399.252188 
L 356.313355 397.07757 
L 356.797428 402.044463 
L 357.166865 404.093109 
L 357.488246 402.809358 
L 358.076117 403.149338 
L 358.559548 401.523662 
L 358.965828 401.286338 
L 359.464766 405.024541 
L 360.115866 397.043372 
L 360.80796 400.141393 
L 361.42331 400.573312 
L 362.036241 403.17862 
L 362.645744 402.146407 
L 363.506226 398.872441 
L 363.943547 399.795599 
L 364.565762 395.087191 
L 365.029429 396.985908 
L 365.610016 404.982151 
L 366.108895 402.663632 
L 366.764146 399.067321 
L 367.159067 403.953876 
L 367.749473 405.010621 
L 368.292536 397.67216 
L 368.993866 398.503331 
L 369.365771 401.217429 
L 370.027432 399.958664 
L 370.415183 395.227082 
L 371.075549 399.626769 
L 371.824714 399.910122 
L 372.259125 401.842077 
L 372.75849 399.366679 
L 373.872238 403.443808 
L 374.431712 396.918885 
L 374.894513 398.222463 
L 375.459709 395.868202 
L 375.845732 401.060562 
L 376.556759 389.828443 
L 376.946436 392.395876 
L 377.718434 404.44917 
L 378.143653 400.148801 
L 378.764274 398.949778 
L 379.298564 397.171928 
L 380.431072 403.180269 
L 380.816896 400.066048 
L 381.794984 396.086845 
L 382.10342 403.350263 
L 382.662459 400.497914 
L 383.047856 400.801264 
L 383.460738 396.388883 
L 384.227153 402.925127 
L 384.61402 399.704718 
L 385.001693 405.054224 
L 385.316865 396.25078 
L 385.799647 404.24575 
L 386.825263 397.909911 
L 387.596354 404.726258 
L 388.017254 396.036358 
L 388.734363 404.934437 
L 389.08186 403.855209 
L 389.569958 396.730479 
L 390.267751 400.925548 
L 390.720217 396.813262 
L 391.308021 401.001468 
L 391.838413 399.077029 
L 392.284951 404.610019 
L 393.464572 397.328584 
L 394.036103 402.741947 
L 394.435422 402.066744 
L 395.712844 400.255992 
L 396.157395 396.875385 
L 396.857863 401.218778 
L 397.175559 401.8487 
L 397.552429 403.203837 
L 397.929521 401.976904 
L 398.447933 395.780656 
L 399.021966 404.768405 
L 399.372829 400.627059 
L 400.03808 397.757256 
L 400.941258 402.312953 
L 401.278388 401.682185 
L 402.342145 402.11686 
L 403.308871 394.865492 
L 403.77804 392.954612 
L 404.165767 404.890537 
L 404.519717 388.512904 
L 405.004275 403.875503 
L 405.538081 396.513916 
L 406.022343 397.638273 
L 407.231106 401.554725 
L 407.611013 404.066546 
L 408.224525 397.594194 
L 408.670739 396.050657 
L 409.729372 401.552341 
L 410.259978 398.579978 
L 410.949965 397.405302 
L 411.644371 395.313544 
L 412.481854 399.897946 
L 412.845025 403.545786 
L 413.900153 387.649024 
L 414.408889 393.275382 
L 414.886116 386.320323 
L 415.315669 394.32135 
L 415.944093 392.736769 
L 416.274581 402.336162 
L 416.928839 399.963845 
L 417.318317 399.669345 
L 417.594276 404.974498 
L 418.174794 400.270171 
L 418.691257 399.805045 
L 419.207709 396.904945 
L 419.75894 395.379636 
L 420.314017 392.582331 
L 420.775798 395.709416 
L 421.29479 387.687341 
L 421.951485 402.280751 
L 422.452373 396.156523 
L 423.046759 395.230083 
L 423.58028 390.393196 
L 424.036886 399.561174 
L 424.39377 403.601199 
L 424.707562 382.976034 
L 425.170048 390.637546 
L 425.642031 392.258493 
L 426.328485 404.160336 
L 427.492386 393.324681 
L 427.957941 401.266839 
L 428.542778 393.698608 
L 428.946768 383.267774 
L 429.25339 401.069181 
L 429.675166 383.461836 
L 430.160283 304.464462 
L 430.740427 381.476258 
L 431.221475 367.039252 
L 431.774065 397.650096 
L 432.268307 389.252753 
L 432.541719 403.290366 
L 433.425974 399.291573 
L 434.096655 401.547831 
L 434.413106 403.739421 
L 435.053748 394.887759 
L 435.61932 399.869103 
L 435.938984 404.458175 
L 436.226706 398.896407 
L 436.753405 393.199321 
L 437.239102 398.791277 
L 437.812103 382.322659 
L 438.269207 401.964968 
L 438.952775 349.648618 
L 439.350201 383.560988 
L 439.948191 384.519303 
L 440.448512 376.564657 
L 441.111596 313.627654 
L 441.599656 355.708192 
L 442.159573 368.436613 
L 442.718654 371.436901 
L 443.308298 364.375605 
L 443.844396 385.157364 
L 444.324951 374.887658 
L 444.985223 305.055172 
L 446.028894 366.283526 
L 446.550739 361.799085 
L 446.993839 377.927817 
L 447.414625 387.860142 
L 447.702292 359.629385 
L 448.20573 368.556948 
L 449.3323 393.702965 
L 449.689283 396.571032 
L 449.971882 403.095813 
L 450.434375 402.265821 
L 450.95041 399.643974 
L 451.401496 388.873352 
L 451.950331 392.225183 
L 452.625693 402.029044 
L 453.157419 387.61897 
L 453.658562 394.276197 
L 454.240964 363.754264 
L 454.754514 363.952545 
L 455.303255 173.07571 
L 455.834553 188.564583 
L 456.362403 302.059998 
L 457.38435 386.416736 
L 457.786108 385.809686 
L 458.162953 377.683215 
L 458.582266 392.64106 
L 459.131802 385.58134 
L 459.684158 397.731918 
L 460.209162 383.026251 
L 460.82678 391.852005 
L 461.239453 376.364313 
L 461.570884 397.79301 
L 461.971764 375.069275 
L 462.361672 313.538824 
L 462.959888 340.976854 
L 463.438151 379.028377 
L 463.937214 399.678001 
L 464.27645 387.594171 
L 464.584883 401.946097 
L 465.127823 400.195512 
L 465.588634 387.218888 
L 465.978953 399.896123 
L 466.387749 402.298317 
L 466.665589 399.627041 
L 467.055688 376.544347 
L 467.425979 400.640453 
L 467.819929 374.613252 
L 468.385897 381.20201 
L 468.908579 350.351463 
L 469.492045 327.09752 
L 470.008486 73.4328 
L 471.119343 291.968264 
L 472.164212 384.95254 
L 472.89832 397.324638 
L 473.346985 395.39546 
L 473.79903 397.157503 
L 474.388251 380.87859 
L 474.766128 398.452582 
L 475.0865 405.011237 
L 475.454739 390.390702 
L 475.885947 399.324491 
L 476.499392 391.935074 
L 476.816274 404.919722 
L 477.112733 396.160889 
L 477.451432 398.705853 
L 478.227927 391.003667 
L 478.713012 399.241992 
L 479.028099 398.919169 
L 479.322453 397.40126 
L 479.799301 399.012772 
L 480.394529 370.861562 
L 480.973262 383.487588 
L 481.510808 381.664495 
L 482.012308 365.031313 
L 482.79925 403.663475 
L 483.20252 367.449913 
L 483.694193 372.844454 
L 484.252523 352.12232 
L 484.831672 355.583429 
L 485.355386 370.238997 
L 485.981285 379.325699 
L 486.363174 401.874589 
L 486.821288 391.431252 
L 487.551015 397.446156 
L 487.989015 399.311359 
L 488.684777 396.361869 
L 489.390826 398.542664 
L 489.73131 397.937993 
L 490.140271 391.89995 
L 490.628602 398.309797 
L 491.866769 387.400043 
L 492.400512 388.081145 
L 492.675402 400.878612 
L 493.030509 394.343316 
L 493.455757 400.580429 
L 494.005285 394.410865 
L 494.321725 402.699973 
L 494.637203 378.556081 
L 495.197606 348.556878 
L 495.671164 366.708818 
L 496.244831 371.428006 
L 496.771154 391.969071 
L 497.202218 398.962506 
L 497.48183 388.653502 
L 497.91032 393.395655 
L 498.447234 394.592053 
L 498.909731 401.218575 
L 499.761878 388.090539 
L 500.7414 400.737229 
L 501.558303 395.057137 
L 502.123822 403.926998 
L 502.855483 394.598422 
L 503.976493 391.253206 
L 504.328731 399.986974 
L 505.106369 391.398184 
L 505.444182 397.710758 
L 505.972447 393.00541 
L 506.766401 397.307947 
L 507.127945 391.977418 
L 507.707119 392.633739 
L 508.206609 390.702611 
L 508.565264 403.91806 
L 508.956474 394.530591 
L 509.366306 362.468022 
L 509.985954 380.007082 
L 510.471509 380.528343 
L 510.934284 395.417275 
L 511.27716 400.582202 
L 511.704629 394.942754 
L 512.183953 398.072364 
L 512.616812 388.551283 
L 513.19839 396.321669 
L 513.630505 392.482284 
L 514.051934 404.996208 
L 514.745203 392.54743 
L 515.275813 391.50883 
L 516.054831 404.671831 
L 516.473145 391.103264 
L 516.825339 401.028067 
L 517.150249 400.599169 
L 517.479669 391.479905 
L 517.830301 402.324729 
L 518.112088 399.50217 
L 518.576242 397.409858 
L 519.103947 401.957385 
L 519.377421 396.674266 
L 519.772253 399.091608 
L 520.734083 394.456247 
L 521.176605 403.238226 
L 521.926958 404.601958 
L 522.486644 397.215028 
L 522.958451 398.12304 
L 523.550974 393.702059 
L 524.0627 400.654241 
L 524.502764 391.61726 
L 524.997757 394.452016 
L 525.74678 391.985812 
L 526.251305 398.865396 
L 526.697867 400.328704 
L 527.219434 394.558027 
L 527.843303 402.574778 
L 529.165575 399.294915 
L 529.493458 392.315112 
L 529.910718 403.32784 
L 530.343519 394.254486 
L 530.925844 391.295185 
L 531.384738 388.376677 
L 531.870085 399.951483 
L 532.266678 403.995826 
L 532.992333 398.558589 
L 533.343856 391.751867 
L 533.887057 392.761582 
L 534.370663 391.963663 
L 534.944139 392.202641 
L 535.501513 392.689018 
L 536.051276 391.452336 
L 536.383229 402.554174 
L 536.766598 404.88837 
L 537.644964 394.920057 
L 538.122332 398.40848 
L 538.401113 398.26114 
L 539.127583 395.854186 
L 539.614611 398.718444 
L 539.933626 401.859998 
L 540.410038 402.51035 
L 540.909794 395.56566 
L 541.560096 396.302222 
L 541.886945 402.505346 
L 542.162154 393.344728 
L 542.693249 395.137544 
L 543.426193 392.320464 
L 543.770901 393.370526 
L 544.203434 397.304393 
L 544.730023 393.973296 
L 545.241862 399.972267 
L 545.71925 386.721259 
L 546.054816 402.411091 
L 546.588232 401.22374 
L 546.972572 383.159504 
L 547.488955 400.796692 
L 548.076161 402.378972 
L 548.542258 399.458885 
L 549.161934 394.703617 
L 549.881598 396.136214 
L 550.17079 403.127381 
L 550.468228 405.000981 
L 550.790159 401.633229 
L 551.128585 399.324804 
L 551.634197 402.806551 
L 552.275672 396.781153 
L 552.688617 386.39699 
L 553.079908 397.524537 
L 553.493979 396.580061 
L 553.932979 386.89077 
L 554.503494 390.595434 
L 555.035908 389.308887 
L 555.856405 403.109265 
L 556.148498 400.674708 
L 556.526798 391.844368 
L 557.284521 394.593916 
L 557.660446 404.478463 
L 558.421804 387.385282 
L 558.941155 398.686298 
L 559.597418 397.247171 
L 560.168832 401.407814 
L 560.56766 401.84803 
L 561.014979 401.389045 
L 561.462691 402.955944 
L 561.757279 405.035417 
L 562.275016 395.732388 
L 563.396013 404.467317 
L 563.90323 399.072888 
L 564.391001 399.747083 
L 564.911187 401.933505 
L 565.382455 396.069793 
L 566.071939 393.739804 
L 566.534186 385.407961 
L 566.934318 391.114606 
L 567.24304 402.536146 
L 567.613956 395.885741 
L 568.112293 394.410716 
L 568.394438 401.620373 
L 568.804679 395.426785 
L 569.175464 393.474502 
L 569.897533 397.453738 
L 570.23688 401.097963 
L 570.668418 384.476939 
L 571.017789 395.208734 
L 571.473614 390.159502 
L 572.08512 396.882195 
L 572.367708 398.426188 
L 572.66225 398.546158 
L 573.129806 397.35022 
L 573.749305 399.430859 
L 574.159839 399.722506 
L 574.463627 398.144095 
L 575.097252 400.729841 
L 575.445807 397.561128 
L 576.080778 390.501473 
L 576.544683 380.53393 
L 577.029468 395.028808 
L 577.59991 399.04965 
L 577.88929 388.306855 
L 578.554295 405.034491 
L 578.859752 397.991738 
L 579.175276 399.49254 
L 579.640303 396.147552 
L 580.293016 398.12982 
L 580.718444 387.5761 
L 582.020549 396.685945 
L 582.398763 393.418487 
L 582.768364 403.276837 
L 583.050566 398.748738 
L 583.379203 396.721018 
L 583.656029 399.295758 
L 584.032909 399.796396 
L 584.032909 399.796396 
" style="fill:none;stroke:#1f77b4;stroke-linecap:square;stroke-width:1.5;"/>
   </g>
   <g id="patch_3">
    <path d="M 84.42 421.6464 
L 84.42 56.8512 
" style="fill:none;stroke:#000000;stroke-linecap:square;stroke-linejoin:miter;stroke-width:0.8;"/>
   </g>
   <g id="patch_4">
    <path d="M 607.824 421.6464 
L 607.824 56.8512 
" style="fill:none;stroke:#000000;stroke-linecap:square;stroke-linejoin:miter;stroke-width:0.8;"/>
   </g>
   <g id="patch_5">
    <path d="M 84.42 421.6464 
L 607.824 421.6464 
" style="fill:none;stroke:#000000;stroke-linecap:square;stroke-linejoin:miter;stroke-width:0.8;"/>
   </g>
   <g id="patch_6">
    <path d="M 84.42 56.8512 
L 607.824 56.8512 
" style="fill:none;stroke:#000000;stroke-linecap:square;stroke-linejoin:miter;stroke-width:0.8;"/>
   </g>
  </g>
 </g>
 <defs>
  <clipPath id="p4090fd5e33">
   <rect height="364.7952" width="523.404" x="84.42" y="56.8512"/>
  </clipPath>
 </defs>
</svg>
